<?xml version="1.0" encoding="UTF-8"?>
<svg id="Livello_1" data-name="Livello 1" xmlns="http://www.w3.org/2000/svg" version="1.1" viewBox="120 0 801 450">
  <defs>
    <style>
      .cls-1 {
        fill: #7dc9b8;
        stroke-width: 0px;
      }
    </style>
  </defs>
  <path class="cls-1" d="M123.6,125.2h31.5c39.1,0,61.2,25,61.2,57.8s-24.9,57.8-60.2,57.8h-32.5v-115.6ZM145.6,145.6v74.8h7.9c24.9,0,40.7-16.2,40.7-37.4s-13.3-37.4-41.7-37.4h-7Z"/>
  <path class="cls-1" d="M237.4,127.5c7.8,0,13.1,5.4,13.1,13.1s-5.4,13-13.1,13-13-5.2-13-13,5.2-13.1,13-13.1ZM226.6,161.6h21.7v79.2h-21.7v-79.2Z"/>
  <path class="cls-1" d="M272.4,204h23.1v1.3c0,10,6.8,16.8,16.5,16.8s15.7-5.5,15.7-13.8-10.4-12.4-22.3-17.4c-14.7-6.3-31.5-13.9-31.5-35.3s14.6-32,36.6-32,38,12,38,35.3h-22v-1.3c0-10.3-6.2-14.6-15.8-14.6s-14.6,5.1-14.6,11.9,11.1,13.3,23.3,18.4c14.7,6.3,30.9,14.4,30.9,34.7s-11.6,34.4-37.9,34.4-39.9-13.5-39.9-38.3Z"/>
  <path class="cls-1" d="M359.3,201.2c0-22.8,18.2-41.2,41-41.2s40.9,18.4,40.9,41.2v39.6h-21.4v-8.6c-4.6,6.5-11.2,9.8-20.1,9.8-22.3,0-40.4-17.4-40.4-40.9ZM420.4,201.2c0-11.4-8.9-20.6-20.1-20.6s-20.1,9.2-20.1,20.6,8.7,20.6,20.1,20.6,20.1-9.2,20.1-20.6Z"/>
  <path class="cls-1" d="M452.3,196.9c0-21.1,14.6-36.9,36.6-36.9s37.9,15.5,37.9,36.9v23.4h-21.5v-23.1c0-9.7-7-16.6-16.3-16.6s-15.2,7.1-15.1,16.2v23.6h-21.5v-23.4Z"/>
  <path class="cls-1" d="M571.4,236.3h23.9v20.3h-68.6v-20.3h23.6v-74.8h21.1v74.8Z"/>
  <path class="cls-1" d="M595.4,201.2c0-22.8,18.2-41.2,41-41.2s41,18.4,41,41.2-18.2,41.2-41,41.2-41-18.4-41-41.2ZM656.4,201.2c0-11.2-9-20.6-20-20.6s-19.8,9.3-19.8,20.6,8.6,20.6,19.8,20.6,20-9.3,20-20.6Z"/>
  <path class="cls-1" d="M561.1,310.3c-39.8,0-77.6-12.8-109.1-36.9l12.8-16.8c27.8,21.3,61.1,32.6,96.3,32.6s68.4-11.3,96.3-32.6l12.8,16.8c-31.5,24.2-69.3,36.9-109.1,36.9Z"/>
</svg>