<?xml version="1.0" encoding="UTF-8"?>
<svg id="Livello_1" data-name="Livello 1" xmlns="http://www.w3.org/2000/svg" version="1.1" viewBox="0 0 801 503.7">
  <defs>
    <style>
      .cls-1 {
        fill: #7dc9b8;
        stroke-width: 0px;
      }
    </style>
  </defs>
  <g>
    <path class="cls-1" d="M125,318.7c0-9.3,7.1-15.3,15.2-15.3s15.2,6.8,15.2,15-6.4,15-15.3,15-15.1-7-15.1-14.7h0ZM130.9,318.5c0,5.3,3.8,9.9,9.4,9.9s9.3-5.1,9.3-9.9-3.4-9.9-9.3-9.9-9.4,4.8-9.4,9.9h0Z"/>
    <path class="cls-1" d="M159.6,304h9.2c3.6,0,8.8.4,12.3,5,2.1,2.7,3,5.9,3,9.4,0,8.2-4.3,14.5-14.8,14.5h-9.6v-28.9ZM165.4,327.8h4.1c6.3,0,8.7-4.1,8.7-9.3s-.6-4.7-2-6.5c-1.2-1.6-3.2-2.9-6.7-2.9h-4.1v18.7Z"/>
    <path class="cls-1" d="M187,318.7c0-9.3,7.1-15.3,15.2-15.3s15.2,6.8,15.2,15-6.4,15-15.3,15-15.1-7-15.1-14.7h0ZM192.8,318.5c0,5.3,3.8,9.9,9.4,9.9s9.3-5.1,9.3-9.9-3.4-9.9-9.3-9.9-9.4,4.8-9.4,9.9h0Z"/>
    <path class="cls-1" d="M240,324.1v-20.1c-.1,0,5.5,0,5.5,0v28.9h-5.2l-13.3-20v20c.1,0-5.5,0-5.5,0v-28.9h5.2l13.3,20.1Z"/>
    <path class="cls-1" d="M254.9,309.1h-6.3v-5.1h18.3v5.1h-6.2v23.8h-5.8v-23.8Z"/>
    <path class="cls-1" d="M267.2,318.7c0-9.3,7.1-15.3,15.2-15.3s15.2,6.8,15.2,15-6.4,15-15.3,15-15.1-7-15.1-14.7h0ZM273,318.5c0,5.3,3.8,9.9,9.4,9.9s9.3-5.1,9.3-9.9-3.4-9.9-9.3-9.9-9.4,4.8-9.4,9.9h0Z"/>
    <path class="cls-1" d="M301.8,304h5.8v28.9h-5.8v-28.9Z"/>
    <path class="cls-1" d="M316.9,332.9h-6.3l11.7-28.9h5.1l11.5,28.9h-6.4l-2.1-5.7h-11.4l-2.1,5.7ZM324.6,310.9l-4.1,11.7h8.3l-4.2-11.7Z"/>
    <path class="cls-1" d="M343.3,309.1h-6.3v-5.1h18.3v5.1h-6.2v23.8h-5.8v-23.8Z"/>
    <path class="cls-1" d="M358.2,304h8.8c4.5,0,7.1.7,8.6,1.8,2.4,1.7,3.7,4.7,3.7,7.9s-.6,4-1.6,5.4c-1.3,1.8-2.9,2.7-4.8,3.1l6.5,10.7h-6.1l-7.8-13.5h1.1c1.9,0,4-.1,5.2-1.1,1.1-.9,1.8-2.5,1.8-4.2s-.9-3.4-2.2-4.2c-1.1-.7-2.5-.9-4.1-.9h-3.4v23.8h-5.8v-28.9Z"/>
    <path class="cls-1" d="M382.9,304h5.8v28.9h-5.8v-28.9Z"/>
    <path class="cls-1" d="M398.1,332.9h-6.3l11.7-28.9h5.1l11.5,28.9h-6.4l-2.1-5.7h-11.4l-2.1,5.7ZM405.8,310.9l-4.1,11.7h8.3l-4.2-11.7Z"/>
    <path class="cls-1" d="M130.6,370.9c.2,3.9,2.8,4.7,4.1,4.7,2.2,0,4-1.8,4-3.8s-2.1-3.1-6.1-4.7c-2.2-.8-7.2-2.6-7.2-8.1s4.9-8.6,9.6-8.6,8.9,2,9.2,8.4h-5.7c-.2-1.3-.7-3.6-3.6-3.6s-3.6,1.3-3.6,3.3c0,2.2,1.5,2.7,6.4,4.7,4.4,1.9,6.9,4,6.9,8.1s-2.9,9-9.7,9-10-4-9.9-9.5h5.8Z"/>
    <path class="cls-1" d="M156.8,350.9c4.9,0,6.8.7,8.5,2,2.1,1.7,3.3,4.5,3.3,7.4s-1.2,5.8-3.1,7.3c-2,1.6-3.9,2.3-8.1,2.3h-3.6v9.9h-5.8v-28.9h8.8ZM153.9,364.8h3.4c1.3,0,2.6-.1,3.8-.7,1.1-.5,1.9-1.8,1.9-3.7s-.9-3.1-2-3.6c-1.2-.6-2.5-.7-3.9-.7h-3.2v8.8Z"/>
    <path class="cls-1" d="M171.9,350.9h16.2v5.1h-10.4v6.6h10.2v5.1h-10.2v7h10.4v5.1h-16.2v-28.9Z"/>
    <path class="cls-1" d="M220.8,370.2c-1.8,6-7.4,10.2-14.2,10.2s-15.2-7-15.2-15.1,6-15,15.1-15c8.3,0,13.1,6.2,14.2,10.4h-6.1c-.9-2-3.5-5.2-8.1-5.3-5.6,0-9.3,4.7-9.3,9.9s3.8,9.9,9.3,9.9,7.5-4.1,8.1-5.1h6.1Z"/>
    <path class="cls-1" d="M224.8,350.9h5.8v28.9h-5.8v-28.9Z"/>
    <path class="cls-1" d="M239.9,379.9h-6.3l11.7-28.9h5.1l11.5,28.9h-6.4l-2.1-5.7h-11.4l-2.1,5.7ZM247.6,357.8l-4.1,11.7h8.3l-4.2-11.7Z"/>
    <path class="cls-1" d="M265.1,350.9h5.8v23.8h9.5v5.1h-15.3v-28.9Z"/>
    <path class="cls-1" d="M283.4,350.9h5.8v28.9h-5.8v-28.9Z"/>
    <path class="cls-1" d="M298.9,370.9c.2,3.9,2.8,4.7,4.1,4.7,2.2,0,4-1.8,4-3.8s-2.1-3.1-6.1-4.7c-2.2-.8-7.2-2.6-7.2-8.1s4.9-8.6,9.6-8.6,8.9,2,9.2,8.4h-5.7c-.2-1.3-.7-3.6-3.6-3.6s-3.6,1.3-3.6,3.3c0,2.2,1.5,2.7,6.4,4.7,4.4,1.9,6.9,4,6.9,8.1s-2.9,9-9.7,9-10-4-9.9-9.5h5.8Z"/>
    <path class="cls-1" d="M320.4,356h-6.3v-5.1h18.3v5.1h-6.2v23.8h-5.8v-23.8Z"/>
    <path class="cls-1" d="M335.5,350.9h5.8v28.9h-5.8v-28.9Z"/>
    <path class="cls-1" d="M374.8,370.2c-1.8,6-7.4,10.2-14.2,10.2s-15.2-7-15.2-15.1,6-15,15.1-15c8.3,0,13.1,6.2,14.2,10.4h-6.1c-.9-2-3.5-5.2-8.1-5.3-5.6,0-9.3,4.7-9.3,9.9s3.8,9.9,9.3,9.9,7.5-4.1,8.1-5.1h6.1Z"/>
    <path class="cls-1" d="M380.6,379.9h-6.3l11.7-28.9h5.1l11.5,28.9h-6.4l-2.1-5.7h-11.4l-2.1,5.7ZM388.3,357.8l-4.1,11.7h8.3l-4.2-11.7Z"/>
  </g>
  <g>
    <path class="cls-1" d="M123.6,124.9h31.5c39.1,0,61.1,25,61.1,57.8s-24.9,57.8-60.2,57.8h-32.5v-115.6ZM145.6,145.3v74.8h7.9c24.9,0,40.7-16.2,40.7-37.4s-13.3-37.4-41.7-37.4h-7Z"/>
    <path class="cls-1" d="M237.4,127.3c7.8,0,13.1,5.4,13.1,13.1s-5.4,13-13.1,13-13-5.2-13-13,5.2-13.1,13-13.1ZM226.6,161.3h21.7v79.2h-21.7v-79.2Z"/>
    <path class="cls-1" d="M272.4,203.8h23.1v1.3c0,10,6.8,16.8,16.5,16.8s15.7-5.5,15.7-13.8-10.4-12.4-22.3-17.4c-14.7-6.3-31.5-13.9-31.5-35.3s14.6-32,36.6-32,38,12,38,35.3h-22v-1.3c0-10.3-6.2-14.6-15.8-14.6s-14.6,5.1-14.6,11.9,11.1,13.3,23.3,18.4c14.7,6.3,30.9,14.4,30.9,34.7s-11.6,34.4-37.9,34.4-39.9-13.5-39.9-38.3Z"/>
    <path class="cls-1" d="M359.3,200.9c0-22.8,18.2-41.2,41-41.2s40.9,18.4,40.9,41.2v39.6h-21.4v-8.6c-4.6,6.5-11.2,9.8-20.1,9.8-22.3,0-40.4-17.4-40.4-40.9ZM420.4,200.9c0-11.4-8.9-20.6-20.1-20.6s-20.1,9.2-20.1,20.6,8.7,20.6,20.1,20.6,20.1-9.2,20.1-20.6Z"/>
    <path class="cls-1" d="M452.3,196.7c0-21.1,14.6-36.9,36.6-36.9s37.9,15.5,37.9,36.9v23.4h-21.5v-23.1c0-9.7-7-16.6-16.3-16.6s-15.2,7.1-15.1,16.2v23.6h-21.5v-23.4Z"/>
    <path class="cls-1" d="M571.4,236.1h23.9v20.3h-68.6v-20.3h23.6v-74.7h21.1v74.7Z"/>
    <path class="cls-1" d="M595.4,200.9c0-22.8,18.2-41.2,41-41.2s41,18.4,41,41.2-18.2,41.2-41,41.2-41-18.4-41-41.2ZM656.3,200.9c0-11.2-9-20.6-20-20.6s-19.8,9.3-19.8,20.6,8.6,20.6,19.8,20.6,20-9.3,20-20.6Z"/>
    <path class="cls-1" d="M561.1,310.1c-39.8,0-77.6-12.8-109.1-36.9l12.8-16.8c27.8,21.3,61.1,32.6,96.3,32.6s68.4-11.3,96.2-32.6l12.8,16.8c-31.5,24.2-69.2,36.9-109.1,36.9Z"/>
  </g>
</svg>